<svg width="19" height="19" viewBox="0 0 16 16" fill="none" xmlns="http://www.w3.org/2000/svg">
<g id="_?&#235;&#141;&#137;&#236;&#148;&#160;??1" clip-path="url(#clip0_165_3946)">
<path id="Vector" d="M6.31 6.86C6.64 6.58 7.07 6.45 7.5 6.51C7.92 6.57 8.31 6.81 8.54 7.16L9.24 8.21C9.32 8.33 9.46 8.42 9.61 8.43C9.7 8.44 9.87 8.43 10.01 8.29L16 2.3V2.01C16 0.910001 15.1 0.0100007 14 0.0100007H2C0.9 7.48849e-07 0 0.900001 0 2V12.4L6.31 6.86Z" fill="#26db7a"/>
<path id="Vector_2" d="M10.72 8.99C10.4 9.31 9.96 9.47 9.51 9.42C9.06 9.38 8.66 9.14 8.41 8.76L7.71 7.71C7.63 7.59 7.51 7.51 7.36 7.49C7.22 7.47 7.08 7.51 6.97 7.61L0 13.73V14C0 15.1 0.9 16 2 16H14C15.1 16 16 15.1 16 14V3.71L10.72 8.99Z" fill="#26db7a"/>
</g>
<defs>
<clipPath id="clip0_165_3946">
<rect width="16" height="16" fill="white"/>
</clipPath>
</defs>
</svg>
