<svg width="16" height="18" viewBox="0 0 16 18" fill="none" xmlns="http://www.w3.org/2000/svg">
<g id="_?&#235;&#141;&#137;&#236;&#148;&#160;??1" clip-path="url(#clip0_165_3967)">
<path id="Vector" d="M9 2.169L13.59 6.3H9V2.169ZM8 0V6.336C8 6.813 8.43 7.2 8.96 7.2H16L8 0Z" fill="#B6B6B6"/>
<path id="Vector_2" d="M7.85 0.9L15 7.56V16.2C15 16.695 14.55 17.1 14 17.1H2C1.45 17.1 1 16.695 1 16.2V1.8C1 1.305 1.45 0.9 2 0.9H7.85ZM8.27 0H2C0.9 0 0 0.81 0 1.8V16.2C0 17.19 0.9 18 2 18H14C15.1 18 16 17.19 16 16.2V7.2L8.28 0H8.27Z" fill="#B6B6B6"/>
</g>
<defs>
<clipPath id="clip0_165_3967">
<rect width="16" height="18" fill="white"/>
</clipPath>
</defs>
</svg>
