<svg width="19" height="19" viewBox="0 0 16 16" fill="none" xmlns="http://www.w3.org/2000/svg">
<g id="_?&#235;&#141;&#137;&#236;&#148;&#160;??1" clip-path="url(#clip0_165_3988)">
<path id="Vector" d="M8 1C8.21 1 8.42 1.07 8.59 1.2L14.59 5.85C14.85 6.05 15 6.37 15 6.71V13.94C15 14.53 14.55 15 14 15H11V12C11 10.35 9.65 9 8 9C6.35 9 5 10.35 5 12V15H2C1.45 15 1 14.52 1 13.94V6.71C1 6.37 1.15 6.05 1.41 5.85L7.41 1.2C7.58 1.07 7.78 1 8 1ZM8 0C7.58 0 7.15 0.14 6.8 0.41L0.8 5.06C0.3 5.45 0 6.06 0 6.71V13.94C0 15.08 0.9 16 2 16H6V12C6 10.9 6.9 10 8 10C9.1 10 10 10.9 10 12V16H14C15.1 16 16 15.08 16 13.94V6.71C16 6.06 15.7 5.45 15.2 5.06L9.2 0.41C8.85 0.14 8.42 0 8 0Z" fill="#B6B6B6"/>
</g>
<defs>
<clipPath id="clip0_165_3988">
<rect width="16" height="16" fill="white"/>
</clipPath>
</defs>
</svg>
