<svg width="19" height="19" viewBox="0 0 16 16" fill="none" xmlns="http://www.w3.org/2000/svg">
<g id="_?&#235;&#141;&#137;&#236;&#148;&#160;??1" clip-path="url(#clip0_165_3974)">
<path id="Vector" d="M8 1C9.1 1 10 1.9 10 3C10 4.1 9.1 5 8 5C6.9 5 6 4.1 6 3C6 1.9 6.9 1 8 1ZM8 0C6.34 0 5 1.34 5 3C5 4.66 6.34 6 8 6C9.66 6 11 4.66 11 3C11 1.34 9.66 0 8 0Z" fill="#B6B6B6"/>
<path id="Vector_2" d="M8 8C11.86 8 15 11.14 15 15H1C1 11.14 4.14 8 8 8ZM8 7C3.58 7 0 10.58 0 15V16H16V15C16 10.58 12.42 7 8 7Z" fill="#B6B6B6"/>
</g>
<defs>
<clipPath id="clip0_165_3974">
<rect width="16" height="16" fill="white"/>
</clipPath>
</defs>
</svg>
